<svg width="17.909180" height="16.981445" viewBox="0 0 17.9092 16.9814" fill="none" xmlns="http://www.w3.org/2000/svg" xmlns:xlink="http://www.w3.org/1999/xlink">
	<desc>
			Created with Pixso.
	</desc>
	<defs/>
	<path id="Vector" d="M11.21 0.58C10.12 -0.2 7.7 -0.2 6.61 0.58C6.04 0.98 5.76 1.6 5.76 2.45C5.76 5.06 6.13 7.67 8.91 7.67C11.69 7.67 12.06 5.07 12.06 2.45C12.06 1.6 11.78 0.98 11.21 0.58ZM4.4 2.47C4.07 2.4 3.76 2.4 3.58 2.4C1.54 2.4 1.54 3.57 1.54 3.96C1.54 4.76 1.58 5.68 1.89 6.4C2.21 7.15 2.73 7.48 3.58 7.48C4.31 7.48 4.79 7.24 5.12 6.71C4.49 5.43 4.4 3.87 4.4 2.47ZM16.36 3.96C16.36 4.76 16.31 5.68 16.01 6.4C15.69 7.15 15.17 7.48 14.32 7.48C13.56 7.48 13.06 7.22 12.74 6.63C13.33 5.38 13.42 3.87 13.42 2.5C13.67 2.44 13.96 2.4 14.32 2.4C14.82 2.4 16.36 2.4 16.36 3.96ZM1.84 14.57L1.23 14.57C0.55 14.57 0 14.06 0 13.42L0 13.18C0 11.74 1.25 10.58 2.8 10.58L4.23 10.58C2.85 11.46 1.91 12.91 1.84 14.57ZM16.66 14.57C17.35 14.57 17.9 14.06 17.9 13.42L17.9 13.18C17.9 11.74 16.65 10.58 15.1 10.58L13.59 10.58C14.97 11.46 15.9 12.91 15.98 14.57L16.66 14.57ZM12.69 16.98C13.8 16.98 14.7 16.14 14.7 15.12L14.7 14.77C14.7 12.62 12.81 10.88 10.49 10.88L7.33 10.88C5.01 10.88 3.12 12.62 3.12 14.77L3.12 15.12C3.12 16.14 4.02 16.98 5.12 16.98L12.69 16.98Z" fill="#CECECE" fill-opacity="1.000000" fill-rule="evenodd"/>
</svg>
