<svg width="19.999512" height="20.000000" viewBox="0 0 19.9995 20" fill="none" xmlns="http://www.w3.org/2000/svg" xmlns:xlink="http://www.w3.org/1999/xlink">
	<desc>
			Created with Pixso.
	</desc>
	<defs/>
	<path id="Vector" d="M13.97 20L10.8 20C10.59 20 10.38 19.91 10.23 19.76C10.08 19.61 10 19.4 10 19.19L10 17.95C10 17.76 9.96 17.58 9.88 17.4C9.81 17.23 9.7 17.07 9.56 16.94C9.21 16.6 8.71 16.41 8.18 16.42C7.23 16.45 6.42 17.29 6.42 18.26L6.42 19.19C6.42 19.4 6.34 19.61 6.19 19.76C6.04 19.91 5.83 20 5.62 20L2.48 20C2.15 20 1.83 19.93 1.53 19.81C1.23 19.68 0.95 19.5 0.72 19.27C0.26 18.8 0 18.17 0 17.51L0 14.37C0 14.16 0.08 13.95 0.23 13.8C0.38 13.65 0.59 13.57 0.8 13.57L2.04 13.57C2.44 13.57 2.84 13.39 3.16 13.08C3.33 12.9 3.47 12.69 3.56 12.46C3.65 12.23 3.7 11.99 3.7 11.74C3.69 10.79 2.91 10 2 10L0.8 10C0.59 10 0.38 9.91 0.23 9.76C0.08 9.61 0 9.4 0 9.19L0 6.05C0 5.72 0.06 5.4 0.18 5.1C0.31 4.8 0.49 4.52 0.72 4.29C1.19 3.83 1.82 3.57 2.48 3.57L4.94 3.57C5.04 3.57 5.13 3.53 5.2 3.46C5.26 3.4 5.3 3.3 5.3 3.21L5.3 2.92C5.3 2.53 5.38 2.15 5.53 1.79C5.68 1.43 5.9 1.11 6.18 0.83C6.45 0.56 6.78 0.35 7.14 0.2C7.5 0.06 7.89 -0.01 8.28 0C9.86 0.02 11.15 1.35 11.15 2.96L11.15 3.21C11.15 3.3 11.19 3.4 11.26 3.46C11.32 3.53 11.41 3.57 11.51 3.57L13.97 3.57C14.3 3.57 14.61 3.63 14.91 3.75C15.21 3.88 15.48 4.06 15.71 4.28C15.93 4.51 16.11 4.78 16.24 5.08C16.36 5.38 16.42 5.69 16.42 6.02L16.42 8.48C16.42 8.58 16.46 8.67 16.53 8.73C16.59 8.8 16.69 8.84 16.78 8.84L17.03 8.84C18.67 8.84 19.99 10.13 19.99 11.72C19.99 13.36 18.68 14.69 17.07 14.69L16.78 14.69C16.69 14.69 16.59 14.73 16.53 14.79C16.46 14.86 16.42 14.95 16.42 15.05L16.42 17.55C16.42 17.87 16.36 18.19 16.24 18.48C16.11 18.78 15.93 19.05 15.71 19.28C15.48 19.51 15.21 19.69 14.91 19.81C14.61 19.93 14.3 20 13.97 20Z" fill="#5B5B5B" fill-opacity="1.000000" fill-rule="nonzero"/>
</svg>
