<svg width="22.000000" height="22.000000" viewBox="0 0 22 22" fill="none" xmlns="http://www.w3.org/2000/svg" xmlns:xlink="http://www.w3.org/1999/xlink">
	<desc>
			Created with Pixso.
	</desc>
	<defs/>
	<path id="image 7 (Traced)" d="M0 5.15L0 10.31L0.32 10.95L0.64 11.6L0.64 13.4L0.64 15.21L0.32 15.85L0 16.49L0 19.24L0 22L5.47 22L10.95 22L11.53 21.71L12.11 21.42L12.69 21.71L13.27 22L17.63 22L22 22L22 17.63L22 13.27L21.71 12.69L21.42 12.11L21.71 11.53L22 10.95L22 5.47L22 0L20.64 0L19.29 0L18.71 0.28L18.13 0.57L17.55 0.28L16.97 0L14.32 0L11.68 0L11.04 0.32L10.39 0.64L8.59 0.64L6.78 0.64L6.14 0.32L5.5 0L2.75 0L0 0L0 5.15ZM7.7 5.77C11.15 8.36 18.1 13.58 18.12 13.6C18.14 13.61 17.55 17.83 17.5 18.03L17.48 18.13L16.18 18.13L14.88 18.13L14.26 17.39C13.11 16.04 13.25 16.25 13.04 15.46L12.86 14.76L12.21 14.49L11.56 14.21L7.91 9.93C5.91 7.57 4.18 5.53 4.06 5.4L3.85 5.14L4.49 4.5C4.84 4.15 5.14 3.86 5.15 3.86C5.16 3.86 6.31 4.72 7.7 5.77ZM17.17 4.82L18.13 5.78L18.12 7.72L18.11 9.66L15.21 6.76L12.31 3.86L14.26 3.86L16.22 3.86L17.17 4.82ZM7.72 18.12L5.78 18.13L4.82 17.17L3.86 16.22L3.86 14.26L3.86 12.31L6.76 15.21L9.66 18.11L7.72 18.12Z" fill="#DE4E4D" fill-opacity="1.000000" fill-rule="evenodd"/>
</svg>
