<svg width="20.000000" height="20.000000" viewBox="0 0 20 20" fill="none" xmlns="http://www.w3.org/2000/svg" xmlns:xlink="http://www.w3.org/1999/xlink">
	<desc>
			Created with Pixso.
	</desc>
	<defs/>
	<path id="Vector" d="M16.42 1.94L16.42 1C16.42 0.44 15.97 0 15.42 0L4.57 0C4.01 0 3.57 0.44 3.57 1L3.57 1.94C3.57 2.05 3.48 2.14 3.37 2.14L1 2.14C0.44 2.14 0 2.59 0 3.14L0 3.83C0 5.26 0.42 6.64 1.19 7.7C1.66 8.34 2.33 8.83 3 9.14C3.33 9.3 3.59 9.59 3.69 9.94C4.01 11.03 4.65 12.06 5.79 12.93C6.54 13.49 7.4 13.94 8.23 14.22C8.68 14.37 9.01 14.78 9.01 15.25L9.01 17.03C9.01 17.58 8.57 18.03 8.01 18.03L6.69 18.03C6.15 18.03 5.71 18.47 5.71 19.01C5.71 19.56 6.15 20 6.69 20L13.3 20C13.84 20 14.28 19.56 14.28 19.01C14.28 18.47 13.84 18.03 13.3 18.03L11.98 18.03C11.42 18.03 10.98 17.58 10.98 17.03L10.98 15.25C10.98 14.78 11.31 14.37 11.76 14.22C12.59 13.94 13.45 13.49 14.2 12.93C15.34 12.06 15.98 11.03 16.3 9.94C16.4 9.59 16.66 9.3 16.99 9.14C17.66 8.83 18.33 8.34 18.8 7.7C19.57 6.64 20 5.26 20 3.83L20 3.14C20 2.59 19.55 2.14 19 2.14L16.62 2.14C16.51 2.14 16.42 2.05 16.42 1.94ZM2.78 6.55C2.34 5.94 2.06 5.15 1.98 4.31C1.97 4.2 2.06 4.1 2.18 4.1L3.37 4.1C3.48 4.1 3.57 4.19 3.57 4.3L3.57 6.13C3.57 6.62 3.07 6.94 2.78 6.55ZM17.21 6.55C16.89 7 16.42 6.66 16.42 6.11C16.42 5.5 16.42 4.88 16.42 4.3C16.42 4.19 16.51 4.1 16.62 4.1L17.81 4.1C17.93 4.1 18.02 4.2 18.01 4.31C17.93 5.15 17.64 5.93 17.21 6.55Z" fill="#5B5B5B" fill-opacity="1.000000" fill-rule="nonzero"/>
</svg>
