<svg width="44.222168" height="38.944092" viewBox="0 0 44.2222 38.9441" fill="none" xmlns="http://www.w3.org/2000/svg" xmlns:xlink="http://www.w3.org/1999/xlink">
	<desc>
			Created with Pixso.
	</desc>
	<defs/>
	<path id="image 9 (Traced)" d="M11.73 15.99C11.53 16.06 8.46 13.82 6.93 12.5C6.58 12.19 6.28 11.95 6.26 11.96C6.24 11.97 5.61 12.46 4.86 13.03C3.88 13.79 3.48 14.13 3.46 14.25C3.42 14.52 3.88 15.07 4.43 15.41C5.3 15.93 7.6 17.06 8.94 17.63C9.66 17.93 10.31 18.21 10.39 18.24C10.5 18.29 10.48 18.42 10.22 19.1C10.05 19.53 9.86 20.05 9.8 20.24C9.73 20.43 9.65 20.6 9.61 20.62C9.57 20.63 9.14 20.57 8.66 20.48C8.18 20.39 7.75 20.35 7.72 20.39C7.69 20.43 7.69 20.53 7.72 20.61C7.79 20.83 7.69 21.23 7.51 21.44C7.22 21.76 6.9 21.88 5.03 22.3C4.02 22.54 3.06 22.77 2.91 22.82L2.65 22.92L2.87 22.96C3.42 23.05 5.59 23.13 7.2 23.11C8.15 23.1 8.98 23.1 9.04 23.1C9.11 23.1 9.12 23.31 9.06 23.8C9.01 24.18 8.97 24.74 8.96 25.04C8.95 25.57 8.95 25.58 8.67 25.67C7.54 26.06 3.94 26.71 1.9 26.9C1.17 26.97 0.54 27.04 0.48 27.05C0.42 27.07 0.42 27.29 0.48 27.65C0.65 28.69 1.27 29.83 2.09 30.6L2.46 30.95L3.55 30.57C4.87 30.13 6.59 29.41 7.99 28.73C8.56 28.46 9.04 28.24 9.06 28.24C9.07 28.25 9.15 28.61 9.24 29.04C9.32 29.47 9.41 29.82 9.43 29.81C9.46 29.81 9.76 29.53 10.12 29.2C11.15 28.24 11.69 28.09 12.25 28.6C12.63 28.94 12.92 29.53 13.44 31.06C13.71 31.84 14.4 33.8 14.98 35.43C15.92 38.02 16.06 38.39 16.22 38.48C16.39 38.59 16.42 38.58 17.33 38.18C21.26 36.4 25.08 34.54 25.63 34.12C25.82 33.98 26 33.76 26.09 33.54C26.22 33.22 26.22 33.16 26.06 32.82C25.87 32.42 25.51 32.04 24.17 30.85C22.87 29.69 22.35 28.87 22.21 27.71C22.14 27.12 22.2 26.12 22.33 25.83C22.39 25.7 22.36 25.62 22.14 25.29C21.63 24.52 21.17 23.53 20.77 22.33C20.45 21.37 20.41 21.2 20.56 21.45C21.26 22.62 22 23.49 22.78 24.07L23.1 24.31L23.45 23.95C24.45 22.93 26.02 22.42 27.44 22.64C28.16 22.76 29.33 23.26 29.88 23.69C30.09 23.86 30.43 24.23 30.65 24.51L31.04 25.04L32.91 25.18C34.38 25.29 34.79 25.3 34.83 25.2C34.86 25.13 35.08 24.33 35.33 23.41L35.78 21.75L31.7 18.61C29.46 16.88 27.55 15.37 27.44 15.26C27.18 14.96 26.67 13.91 26.6 13.52L26.54 13.19L25.77 13.08C25.35 13.02 24.33 12.86 23.52 12.72C22.7 12.58 22.03 12.48 22.02 12.5C21.98 12.83 21.67 13.71 21.46 14.08C20.87 15.12 19.99 15.79 18.74 16.15C17.45 16.53 16.53 16.44 15.2 15.8C14.43 15.43 13.73 14.83 13.41 14.28C13.33 14.15 13.24 14.06 13.21 14.07C13.12 14.11 11.96 15.63 11.89 15.8C11.86 15.89 11.79 15.97 11.73 15.99Z" fill="#262626" fill-opacity="1.000000" fill-rule="evenodd"/>
	<path id="image 9 (Traced)" d="M25.04 1.16C20.48 3.27 18.56 4.25 18.1 4.69C17.93 4.86 17.76 5.13 17.69 5.35C17.59 5.7 17.59 5.77 17.78 6.24C18.01 6.82 18.23 7.06 19.63 8.31C20.91 9.45 21.03 9.61 21.37 10.62C21.65 11.42 21.66 11.52 21.62 12.12C21.52 13.35 21.03 14.27 20.07 15.04C19.68 15.35 19.48 15.46 18.83 15.68C18.3 15.86 17.9 15.95 17.59 15.96C16.45 16 15.06 15.45 14.29 14.68C13.5 13.86 13.17 13.07 12.99 11.45C12.93 10.88 12.81 10.38 12.6 9.75C12.33 8.93 12.28 8.84 12.05 8.67C11.54 8.31 10.79 8.35 9.95 8.79C9.68 8.93 8.06 10.1 6.34 11.39C3.54 13.51 3.22 13.77 3.11 14.04C3.04 14.22 3.03 14.42 3.08 14.56C3.12 14.69 4.02 15.93 5.07 17.3C6.79 19.57 7 19.86 7.16 20.35C7.39 21 7.34 21.15 6.83 21.38C6.63 21.47 5.73 21.71 4.83 21.92C2.45 22.46 1.75 22.8 1.01 23.75C-0.55 25.78 -0.29 28.77 1.63 30.72C2.02 31.13 2.31 31.33 2.9 31.62C3.8 32.07 4.53 32.24 5.57 32.23C6.27 32.23 6.37 32.21 7.16 31.9C8.19 31.5 8.55 31.26 9.69 30.16C10.64 29.25 11.18 28.8 11.44 28.71C11.66 28.64 11.98 28.85 12.24 29.25C12.37 29.46 13.02 31.21 14.05 34.1C15.83 39.09 15.74 38.9 16.31 38.94C16.6 38.96 17.35 38.63 21.36 36.75C25.22 34.93 26.01 34.48 26.34 33.92C26.62 33.43 26.63 33.14 26.41 32.62C26.2 32.14 26.01 31.93 24.65 30.72C23.62 29.81 23.31 29.46 22.97 28.81C22.25 27.44 22.56 25.41 23.68 24.31C24.3 23.69 24.85 23.36 25.61 23.16C26.73 22.86 27.57 22.94 28.71 23.46C29.24 23.7 29.51 23.89 29.9 24.28C30.73 25.1 30.99 25.77 31.25 27.77C31.39 28.84 31.72 29.88 32 30.14C32.53 30.64 33.3 30.65 34.22 30.17C34.55 30 35.98 28.97 37.86 27.54C40.51 25.53 40.98 25.15 41.1 24.9C41.17 24.74 41.2 24.53 41.16 24.41C41.12 24.3 40.23 23.08 39.18 21.7C37.66 19.7 37.23 19.09 37.06 18.67C36.86 18.19 36.85 18.14 36.97 17.9C37.13 17.57 37.35 17.49 39.38 17.02C41.69 16.49 42.13 16.3 42.94 15.47C43.47 14.93 44.04 13.75 44.16 12.93C44.42 11.2 43.78 9.33 42.52 8.11C41.93 7.55 40.68 6.93 39.85 6.78C38.63 6.56 37.51 6.69 36.58 7.18C35.82 7.57 35.36 7.93 34.3 8.96C33.17 10.05 32.85 10.27 32.53 10.19C32.06 10.07 31.95 9.82 30.18 4.9C29.05 1.73 28.52 0.33 28.42 0.23C27.99 -0.18 27.85 -0.15 25.04 1.16ZM11.48 8.84C11.88 8.93 12.1 9.25 12.31 10.06C12.4 10.42 12.52 11.05 12.57 11.47C12.62 11.89 12.74 12.53 12.84 12.91L13.02 13.6L12.64 13.19C11.26 11.72 9.49 9.63 9.54 9.53C9.59 9.42 10.05 9.19 10.6 8.99C11.07 8.83 11.26 8.79 11.48 8.84ZM6.93 12.5C8.46 13.82 11.53 16.06 11.73 15.99C11.79 15.97 11.86 15.89 11.89 15.8C11.96 15.63 13.12 14.11 13.21 14.07C13.24 14.06 13.33 14.15 13.41 14.28C13.73 14.83 14.43 15.43 15.2 15.8C16.53 16.44 17.45 16.53 18.74 16.15C19.99 15.79 20.87 15.12 21.46 14.08C21.67 13.71 21.98 12.83 22.02 12.5C22.03 12.48 22.7 12.58 23.52 12.72C24.33 12.86 25.35 13.02 25.77 13.08L26.54 13.19L26.6 13.52C26.67 13.91 27.18 14.96 27.44 15.26C27.55 15.37 29.46 16.88 31.7 18.61L35.78 21.75L35.33 23.41C35.08 24.33 34.86 25.13 34.83 25.2C34.79 25.3 34.38 25.29 32.91 25.18L31.04 25.04L30.65 24.51C30.43 24.23 30.09 23.86 29.88 23.69C29.33 23.26 28.16 22.76 27.44 22.64C26.02 22.42 24.45 22.93 23.45 23.95L23.1 24.31L22.78 24.07C22 23.49 21.26 22.62 20.56 21.45C20.41 21.2 20.45 21.37 20.77 22.33C21.17 23.53 21.63 24.52 22.14 25.29C22.36 25.62 22.39 25.7 22.33 25.83C22.2 26.12 22.14 27.12 22.21 27.71C22.35 28.87 22.87 29.69 24.17 30.85C25.51 32.04 25.87 32.42 26.06 32.82C26.22 33.16 26.22 33.22 26.09 33.54C26 33.76 25.82 33.98 25.63 34.12C25.08 34.54 21.26 36.4 17.33 38.18C16.42 38.58 16.39 38.59 16.22 38.48C16.06 38.39 15.92 38.02 14.98 35.43C14.4 33.8 13.71 31.84 13.44 31.06C12.92 29.53 12.63 28.94 12.25 28.6C11.69 28.09 11.15 28.24 10.12 29.2C9.76 29.53 9.46 29.81 9.43 29.81C9.41 29.82 9.32 29.47 9.24 29.04C9.15 28.61 9.07 28.25 9.06 28.24C9.04 28.24 8.56 28.46 7.99 28.73C6.59 29.41 4.87 30.13 3.55 30.57L2.46 30.95L2.09 30.6C1.27 29.83 0.65 28.69 0.48 27.65C0.42 27.29 0.42 27.07 0.48 27.05C0.54 27.04 1.17 26.97 1.9 26.9C3.94 26.71 7.54 26.06 8.67 25.67C8.95 25.58 8.95 25.57 8.96 25.04C8.97 24.74 9.01 24.18 9.06 23.8C9.12 23.31 9.11 23.1 9.04 23.1C8.98 23.1 8.15 23.1 7.2 23.11C5.59 23.13 3.42 23.05 2.87 22.96L2.65 22.92L2.91 22.82C3.06 22.77 4.02 22.54 5.03 22.3C6.9 21.88 7.22 21.76 7.51 21.44C7.69 21.23 7.79 20.83 7.72 20.61C7.69 20.53 7.69 20.43 7.72 20.39C7.75 20.35 8.18 20.39 8.66 20.48C9.14 20.57 9.57 20.63 9.61 20.62C9.65 20.6 9.73 20.43 9.8 20.24C9.86 20.05 10.05 19.53 10.22 19.1C10.48 18.42 10.5 18.29 10.39 18.24C10.31 18.21 9.66 17.93 8.94 17.63C7.6 17.06 5.3 15.93 4.43 15.41C3.88 15.07 3.42 14.52 3.46 14.25C3.48 14.13 3.88 13.79 4.86 13.03C5.61 12.46 6.24 11.97 6.26 11.96C6.28 11.95 6.58 12.19 6.93 12.5ZM23.43 15.76C24.52 16.83 24.85 16.94 25.58 16.46C25.8 16.31 26.01 16.19 26.04 16.18C26.06 16.17 25.86 16.05 25.59 15.91C25.26 15.75 24.76 15.61 24.1 15.5C23.56 15.42 23.1 15.35 23.08 15.36C23.05 15.37 23.21 15.55 23.43 15.76ZM32.51 22.75C33.16 23.36 33.08 23.35 33.84 22.91L34.5 22.54L34.05 22.55C33.8 22.56 33.57 22.58 33.52 22.59C33.47 22.61 33.14 22.56 32.78 22.47C32.42 22.39 32.11 22.33 32.09 22.33C32.08 22.34 32.26 22.53 32.51 22.75ZM32.32 26.03C32.91 26.42 33.38 26.77 33.36 26.81C33.31 26.91 31.8 27.69 31.73 27.65C31.7 27.64 31.63 27.3 31.56 26.89C31.5 26.49 31.39 25.96 31.3 25.72C31.22 25.48 31.17 25.29 31.19 25.31C31.22 25.32 31.72 25.64 32.32 26.03Z" fill="#CECECE" fill-opacity="1.000000" fill-rule="evenodd"/>
</svg>
