<svg width="24.000000" height="24.000000" viewBox="0 0 24 24" fill="none" xmlns="http://www.w3.org/2000/svg" xmlns:xlink="http://www.w3.org/1999/xlink">
	<desc>
			Created with Pixso.
	</desc>
	<defs>
		<clipPath id="clip7_147">
			<rect id="message-circle" width="24.000000" height="24.000000" fill="white" fill-opacity="0"/>
		</clipPath>
	</defs>
	<rect id="message-circle" width="24.000000" height="24.000000" fill="#262626" fill-opacity="0"/>
	<g clip-path="url(#clip7_147)">
		<path id="image 8 (Traced)" d="M11.31 2C10.56 2.08 10.13 2.14 9.61 2.27C6.43 3.05 3.8 5.36 2.64 8.42C2.39 9.06 2.24 9.61 2.13 10.3C2.01 10.96 1.99 11.2 2 12.04C2 12.89 2.03 13.27 2.17 13.97C2.26 14.4 2.27 14.42 2.36 14.42C2.46 14.42 2.93 14.53 3.17 14.61C3.48 14.72 3.93 14.94 4.25 15.16C4.66 15.43 5.19 15.95 5.46 16.36C5.79 16.86 6.02 17.4 6.15 18C6.2 18.23 6.2 18.34 6.2 18.88C6.2 19.42 6.2 19.52 6.15 19.75C6.12 19.89 6.09 20.03 6.08 20.04C6.06 20.08 6.67 20.5 7.08 20.73C8.05 21.27 9.16 21.67 10.29 21.86C10.95 21.97 11.19 21.99 12 21.99C12.78 21.99 13 21.98 13.62 21.88C15.2 21.62 16.81 20.93 18.07 19.95C18.11 19.92 18.11 19.91 18.08 19.73C17.8 18.26 18.27 16.74 19.33 15.68C19.93 15.1 20.65 14.69 21.46 14.5C21.58 14.47 21.68 14.44 21.69 14.43C21.72 14.4 21.85 13.73 21.91 13.38C22.05 12.36 22.02 11.08 21.82 10.08C21.29 7.42 19.74 5.12 17.49 3.64C16.17 2.77 14.77 2.26 13.15 2.05C12.86 2.01 11.55 1.98 11.31 2ZM12.93 4.76C14.56 5.07 16.06 5.84 17.14 6.92C18.14 7.91 18.71 9.07 18.93 10.5C18.98 10.87 18.99 12.07 18.94 12.43C18.8 13.38 18.56 14.19 18.19 14.92C17.86 15.58 17.46 16.12 17 16.53C16.75 16.75 16.44 16.99 16.42 16.97C16.41 16.97 16.4 16.88 16.38 16.78C16.32 16.42 16.2 16.12 15.94 15.75C15.8 15.54 15.71 15.44 15.15 14.82C14.55 14.16 14.38 13.77 14.44 13.23C14.51 12.66 14.91 12.18 15.59 11.84L15.8 11.74L15.78 11.53C15.73 10.91 15.57 10.42 15.27 9.97C14.8 9.26 14.01 8.73 12.99 8.45C12.52 8.32 12.16 8.27 11.48 8.24C10.29 8.2 9.74 8.04 9.31 7.61C9.02 7.32 8.91 7.07 8.88 6.61C8.85 6.17 8.97 5.82 9.25 5.52C9.64 5.08 10.29 4.84 11.4 4.71C11.63 4.69 12.73 4.72 12.93 4.76ZM7.64 6.78C7.74 7.27 8.01 7.67 8.73 8.45C9.36 9.12 9.55 9.47 9.54 9.97C9.54 10.6 9.14 11.14 8.41 11.52L8.2 11.63L8.2 11.84C8.26 13.34 9.37 14.53 11.12 14.96C11.59 15.07 11.92 15.11 12.58 15.14C12.91 15.15 13.28 15.18 13.41 15.2C14.39 15.37 14.93 15.79 15.07 16.5C15.17 17.06 15.04 17.55 14.68 17.91C14.2 18.39 13.36 18.64 12.12 18.68C11.39 18.7 10.82 18.61 10.05 18.37C8.74 17.95 7.62 17.27 6.75 16.37C5.79 15.38 5.25 14.24 5.04 12.8C4.99 12.44 5 11.25 5.05 10.86C5.34 8.94 6.13 7.44 7.34 6.55L7.56 6.38L7.58 6.49C7.59 6.55 7.62 6.68 7.64 6.78ZM12.41 10.13C12.84 10.23 13.27 10.58 13.46 10.97C13.61 11.26 13.66 11.5 13.64 11.83C13.62 12.26 13.47 12.58 13.15 12.91C12.99 13.07 12.91 13.13 12.73 13.22C12.22 13.46 11.75 13.46 11.25 13.22C10.97 13.08 10.67 12.79 10.53 12.52C10.09 11.67 10.41 10.66 11.26 10.24C11.61 10.07 12.02 10.03 12.41 10.13Z" fill="#73D285" fill-opacity="1.000000" fill-rule="evenodd"/>
	</g>
</svg>
