<svg width="18.906250" height="22.000000" viewBox="0 0 18.9062 22" fill="none" xmlns="http://www.w3.org/2000/svg" xmlns:xlink="http://www.w3.org/1999/xlink">
	<desc>
			Created with Pixso.
	</desc>
	<defs/>
	<path id="Vector" d="M8.59 21.14C8.59 21.61 8.97 22 9.45 22C9.92 22 10.31 21.61 10.31 21.14L10.31 20.28L16.32 20.28C17.74 20.28 18.9 19.12 18.9 17.7C18.9 16.86 18.5 16.08 17.83 15.6C17.73 15.53 17.63 15.47 17.52 15.42C17.32 15.31 17.18 15.03 17.18 14.73L17.18 9.45C17.18 5.99 14.9 3.06 11.77 2.07C11.75 2.06 11.73 2.06 11.71 2.05C11.25 1.91 10.78 1.81 10.31 1.76L10.31 0.85C10.31 0.56 10.16 0.3 9.93 0.14C9.79 0.05 9.63 0 9.45 0C8.97 0 8.59 0.38 8.59 0.85L8.59 1.76C8.11 1.81 7.64 1.91 7.18 2.05C7.16 2.06 7.15 2.06 7.13 2.07C3.99 3.06 1.71 5.99 1.71 9.45L1.71 14.73C1.71 15 1.61 15.24 1.45 15.37C1.42 15.39 1.4 15.4 1.37 15.42C0.84 15.7 0.44 16.14 0.21 16.67C0.07 16.99 0 17.34 0 17.7C0 19.12 1.15 20.28 2.57 20.28L8.59 20.28L8.59 21.14Z" fill="#5B5B5B" fill-opacity="1.000000" fill-rule="evenodd"/>
</svg>
