<svg width="20.000000" height="20.000000" viewBox="0 0 20 20" fill="none" xmlns="http://www.w3.org/2000/svg" xmlns:xlink="http://www.w3.org/1999/xlink">
	<desc>
			Created with Pixso.
	</desc>
	<defs/>
	<path id="Vector (Stroke)" d="M9 2C5.13 2 2 5.13 2 9C2 12.86 5.13 16 9 16C10.88 16 12.59 15.25 13.85 14.04C13.88 14 13.91 13.97 13.94 13.94C13.97 13.91 14 13.88 14.04 13.85C15.25 12.59 16 10.88 16 9C16 5.13 12.86 2 9 2ZM16.03 14.61C17.26 13.07 18 11.12 18 9C18 4.02 13.97 0 9 0C4.02 0 0 4.02 0 9C0 13.97 4.02 18 9 18C11.12 18 13.07 17.26 14.61 16.03L18.29 19.7C18.68 20.09 19.31 20.09 19.7 19.7C20.09 19.31 20.09 18.68 19.7 18.29L16.03 14.61Z" fill="#5B5B5B" fill-opacity="1.000000" fill-rule="evenodd"/>
</svg>
