<svg width="42.000000" height="42.000000" viewBox="0 0 42 42" fill="none" xmlns="http://www.w3.org/2000/svg" xmlns:xlink="http://www.w3.org/1999/xlink">
	<desc>
			Created with Pixso.
	</desc>
	<defs>
		<clipPath id="clip16_1153">
			<rect id="message-circle" width="24.000000" height="24.000000" transform="translate(9.000000 9.000000)" fill="white" fill-opacity="0"/>
		</clipPath>
		<clipPath id="clip16_1152">
			<rect id="Frame 4" rx="8.400000" width="42.000000" height="42.000000" fill="white" fill-opacity="0"/>
		</clipPath>
	</defs>
	<g clip-path="url(#clip16_1152)">
		<rect id="message-circle" width="24.000000" height="24.000000" transform="translate(9.000000 9.000000)" fill="#262626" fill-opacity="0"/>
		<g clip-path="url(#clip16_1153)">
			<path id="Vector" d="M24.24 11.79C22.74 9.4 19.25 9.4 17.75 11.79C17.08 12.87 15.92 13.54 14.65 13.59C11.82 13.68 10.08 16.71 11.4 19.2C12 20.32 12 21.67 11.4 22.79C10.08 25.28 11.82 28.31 14.65 28.4C15.92 28.45 17.08 29.12 17.75 30.2C19.25 32.59 22.74 32.59 24.24 30.2C24.91 29.12 26.07 28.45 27.34 28.4C30.17 28.31 31.91 25.28 30.59 22.79C29.99 21.67 29.99 20.32 30.59 19.2C31.91 16.71 30.17 13.68 27.34 13.59C26.07 13.54 24.91 12.87 24.24 11.79ZM21 24.59C22.98 24.59 24.59 22.98 24.59 21C24.59 19.01 22.98 17.4 21 17.4C19.01 17.4 17.4 19.01 17.4 21C17.4 22.98 19.01 24.59 21 24.59Z" fill="#5B5B5B" fill-opacity="1.000000" fill-rule="evenodd"/>
		</g>
	</g>
</svg>
