<svg width="16" height="20" viewBox="0 0 16 20" fill="none" xmlns="http://www.w3.org/2000/svg">
<path d="M15.2001 9.05106C14.7661 8.07432 14.1353 7.19765 13.347 6.4759L12.6965 5.87905C12.6744 5.85934 12.6478 5.84535 12.619 5.83831C12.5903 5.83128 12.5603 5.83141 12.5316 5.83869C12.5029 5.84597 12.4764 5.86019 12.4545 5.88009C12.4326 5.89998 12.4159 5.92496 12.4059 5.95282L12.1153 6.78661C11.9342 7.3097 11.6011 7.84395 11.1295 8.36927C11.0982 8.4028 11.0624 8.41174 11.0378 8.41398C11.0132 8.41621 10.9752 8.41174 10.9417 8.38045C10.9104 8.35362 10.8947 8.31339 10.897 8.27315C10.9797 6.92744 10.5773 5.40962 9.69658 3.75766C8.96784 2.38513 7.95521 1.31438 6.68998 0.567762L5.76676 0.0245628C5.64605 -0.0469697 5.49181 0.0469166 5.49852 0.187746L5.5477 1.26073C5.58123 1.99394 5.49628 2.6422 5.2951 3.18093C5.0492 3.84037 4.69601 4.45287 4.24446 5.00277C3.93022 5.38494 3.57405 5.73061 3.18265 6.03329C2.24 6.75793 1.47351 7.68643 0.940558 8.74929C0.408925 9.82141 0.131996 11.0018 0.131348 12.1985C0.131348 13.2536 0.339239 14.2752 0.75055 15.2386C1.1477 16.1662 1.72084 17.0081 2.43827 17.7177C3.16254 18.433 4.00304 18.9963 4.93967 19.3875C5.90983 19.7943 6.93811 20 7.99992 20C9.06173 20 10.09 19.7943 11.0602 19.3897C11.9945 19.0008 12.8441 18.4337 13.5616 17.7199C14.2858 17.0046 14.8536 16.1685 15.2493 15.2409C15.66 14.28 15.8707 13.2456 15.8685 12.2007C15.8685 11.1099 15.6449 10.0503 15.2001 9.05106Z" fill="#CECECE"/>
</svg>
